<svg width="192" height="18" viewBox="0 0 192 18" fill="none" xmlns="http://www.w3.org/2000/svg">
<path d="M10.512 18H6.768V4.296H0.36V0.551999H16.92V4.296H10.512V18ZM54.699 18H50.379C45.411 18 41.763 14.16 41.763 9.096C41.763 3.96 45.411 0.551999 50.379 0.551999H54.699C59.835 0.551999 63.387 4.032 63.387 9.096C63.387 14.16 59.739 18 54.699 18ZM50.379 14.256H54.699C57.603 14.256 59.643 12.168 59.643 9.288C59.643 6.384 57.603 4.296 54.699 4.296H50.379C47.571 4.296 45.507 6.384 45.507 9.288C45.507 12.168 47.547 14.256 50.379 14.256ZM104.635 18H89.6108V0.551999H93.3548V14.256H104.635V18ZM145.748 10.608H136.484V7.656H145.748V10.608ZM146.444 18H130.58V0.551999H146.42V4.296H134.3V14.256H146.444V18ZM185.99 18H172.814V14.256H185.99C187.334 14.256 188.102 13.56 188.102 12.456C188.102 11.28 187.334 10.608 185.99 10.608H178.094C174.662 10.608 172.55 8.544 172.55 5.592C172.55 2.712 174.518 0.551999 178.142 0.551999H190.766V4.296H178.142C177.086 4.296 176.438 4.896 176.438 5.976C176.438 7.056 177.11 7.656 178.142 7.656H185.99C189.662 7.656 191.63 9.288 191.63 12.768C191.63 15.768 189.782 18 185.99 18Z" fill="#333333"/>
</svg>
